<svg xmlns="http://www.w3.org/2000/svg" viewBox="0 0 1920 900" width="1920" height="900" role="img" aria-label="davidsonville-hero"><defs><linearGradient id="g28" x1="0" y1="0" x2="0" y2="1"><stop offset="0" stop-color="#CFE0EC" stop-opacity="1"/><stop offset="1" stop-color="#F5F7F9" stop-opacity="1"/></linearGradient></defs><rect width="1920" height="900" fill="url(#g28)"/><path d="M0,560 Q200,480 300,520 Q400,560 500,520 Q600,480 700,520 Q800,560 900,520 Q1000,480 1100,520 Q1200,560 1300,520 Q1400,480 1500,520 Q1600,560 1700,520 Q1800,480 1860,494 Q1920,508 1920,508" fill="none" stroke="#6C90B0" stroke-opacity="0.38" stroke-width="2.5" stroke-linecap="round"/><rect x="140" y="570" width="120" height="66" rx="12" fill="none" stroke="#6C90B0" stroke-opacity="0.3" stroke-width="2"/><line x1="200" y1="574.8" x2="200" y2="631.2" stroke="#6C90B0" stroke-opacity="0.3" stroke-width="1.5" stroke-linecap="round"/><line x1="144.8" y1="603" x2="255.2" y2="603" stroke="#6C90B0" stroke-opacity="0.3" stroke-width="1.5" stroke-linecap="round"/><rect x="360" y="570" width="120" height="66" rx="12" fill="none" stroke="#6C90B0" stroke-opacity="0.3" stroke-width="2"/><line x1="420" y1="574.8" x2="420" y2="631.2" stroke="#6C90B0" stroke-opacity="0.3" stroke-width="1.5" stroke-linecap="round"/><line x1="364.8" y1="603" x2="475.2" y2="603" stroke="#6C90B0" stroke-opacity="0.3" stroke-width="1.5" stroke-linecap="round"/><rect x="580" y="570" width="120" height="66" rx="12" fill="none" stroke="#6C90B0" stroke-opacity="0.3" stroke-width="2"/><line x1="640" y1="574.8" x2="640" y2="631.2" stroke="#6C90B0" stroke-opacity="0.3" stroke-width="1.5" stroke-linecap="round"/><line x1="584.8" y1="603" x2="695.2" y2="603" stroke="#6C90B0" stroke-opacity="0.3" stroke-width="1.5" stroke-linecap="round"/><rect x="800" y="570" width="120" height="66" rx="12" fill="none" stroke="#6C90B0" stroke-opacity="0.3" stroke-width="2"/><line x1="860" y1="574.8" x2="860" y2="631.2" stroke="#6C90B0" stroke-opacity="0.3" stroke-width="1.5" stroke-linecap="round"/><line x1="804.8" y1="603" x2="915.2" y2="603" stroke="#6C90B0" stroke-opacity="0.3" stroke-width="1.5" stroke-linecap="round"/><rect x="1020" y="570" width="120" height="66" rx="12" fill="none" stroke="#6C90B0" stroke-opacity="0.3" stroke-width="2"/><line x1="1080" y1="574.8" x2="1080" y2="631.2" stroke="#6C90B0" stroke-opacity="0.3" stroke-width="1.5" stroke-linecap="round"/><line x1="1024.8" y1="603" x2="1135.2" y2="603" stroke="#6C90B0" stroke-opacity="0.3" stroke-width="1.5" stroke-linecap="round"/><path d="M0,657.3 L160,656.68 L320,650.68 L480,641.23 L640,631.39 L800,624.32 L960,622.32 L1120,626.01 L1280,634.22 L1440,644.3 L1600,652.99 L1760,657.48 L1920,656.34" fill="none" stroke="#6C90B0" stroke-opacity="0.2" stroke-width="2" stroke-linecap="round"/><path d="M24,828 L24,860 A16,16 0 0 0 40,876 L72,876" fill="none" stroke="#6B7480" stroke-opacity="0.22" stroke-width="2" stroke-linecap="round"/><path d="M1848,24 L1880,24 A16,16 0 0 1 1896,40 L1896,72" fill="none" stroke="#6B7480" stroke-opacity="0.22" stroke-width="2" stroke-linecap="round"/></svg>