<svg xmlns="http://www.w3.org/2000/svg" viewBox="0 0 1920 900" width="1920" height="900" role="img" aria-label="mayo-hero"><defs><linearGradient id="cah-mayo" x1="0" y1="0" x2="0" y2="1"><stop offset="0" stop-color="#3a4f45" stop-opacity="1"/><stop offset="0.6" stop-color="#7C8B6F" stop-opacity="0.9"/><stop offset="1" stop-color="#1E2622" stop-opacity="1"/></linearGradient></defs><rect width="1920" height="900" fill="url(#cah-mayo)"/><path d="M0,600 L160,607.83 L320,609.74 L480,604.27 L640,595.57 L800,590.22 L960,592.27 L1120,600.17 L1280,607.94 L1440,609.7 L1600,604.12 L1760,595.42 L1920,590.19" fill="none" stroke="#F6F2EA" stroke-opacity="0.4" stroke-width="2" stroke-linecap="round"/><path d="M0,673.42 L160,672.55 L320,664.84 L480,653.91 L640,644.91 L800,642.06 L960,646.71 L1120,656.67 L1280,667.26 L1440,673.49 L1600,672.43 L1760,664.59 L1920,653.65" fill="none" stroke="#F6F2EA" stroke-opacity="0.25" stroke-width="2" stroke-linecap="round"/><path d="M0,640 Q-4,624 -8,616" fill="none" stroke="#F6F2EA" stroke-opacity="0.45" stroke-width="2" stroke-linecap="round"/><path d="M70,640 Q70,621 70,610" fill="none" stroke="#F6F2EA" stroke-opacity="0.45" stroke-width="2" stroke-linecap="round"/><path d="M140,640 Q144,618 148,604" fill="none" stroke="#F6F2EA" stroke-opacity="0.45" stroke-width="2" stroke-linecap="round"/><path d="M210,640 Q206,615 202,598" fill="none" stroke="#F6F2EA" stroke-opacity="0.45" stroke-width="2" stroke-linecap="round"/><path d="M280,640 Q280,624 280,616" fill="none" stroke="#F6F2EA" stroke-opacity="0.45" stroke-width="2" stroke-linecap="round"/><path d="M350,640 Q354,621 358,610" fill="none" stroke="#F6F2EA" stroke-opacity="0.45" stroke-width="2" stroke-linecap="round"/><path d="M420,640 Q416,618 412,604" fill="none" stroke="#F6F2EA" stroke-opacity="0.45" stroke-width="2" stroke-linecap="round"/><path d="M490,640 Q490,615 490,598" fill="none" stroke="#F6F2EA" stroke-opacity="0.45" stroke-width="2" stroke-linecap="round"/><path d="M560,640 Q564,624 568,616" fill="none" stroke="#F6F2EA" stroke-opacity="0.45" stroke-width="2" stroke-linecap="round"/><path d="M630,640 Q626,621 622,610" fill="none" stroke="#F6F2EA" stroke-opacity="0.45" stroke-width="2" stroke-linecap="round"/><path d="M700,640 Q700,618 700,604" fill="none" stroke="#F6F2EA" stroke-opacity="0.45" stroke-width="2" stroke-linecap="round"/><path d="M770,640 Q774,615 778,598" fill="none" stroke="#F6F2EA" stroke-opacity="0.45" stroke-width="2" stroke-linecap="round"/><path d="M840,640 Q836,624 832,616" fill="none" stroke="#F6F2EA" stroke-opacity="0.45" stroke-width="2" stroke-linecap="round"/><path d="M910,640 Q910,621 910,610" fill="none" stroke="#F6F2EA" stroke-opacity="0.45" stroke-width="2" stroke-linecap="round"/><path d="M980,640 Q984,618 988,604" fill="none" stroke="#F6F2EA" stroke-opacity="0.45" stroke-width="2" stroke-linecap="round"/><path d="M1050,640 Q1046,615 1042,598" fill="none" stroke="#F6F2EA" stroke-opacity="0.45" stroke-width="2" stroke-linecap="round"/><path d="M1120,640 Q1120,624 1120,616" fill="none" stroke="#F6F2EA" stroke-opacity="0.45" stroke-width="2" stroke-linecap="round"/><path d="M1190,640 Q1194,621 1198,610" fill="none" stroke="#F6F2EA" stroke-opacity="0.45" stroke-width="2" stroke-linecap="round"/><path d="M1260,640 Q1256,618 1252,604" fill="none" stroke="#F6F2EA" stroke-opacity="0.45" stroke-width="2" stroke-linecap="round"/><path d="M1330,640 Q1330,615 1330,598" fill="none" stroke="#F6F2EA" stroke-opacity="0.45" stroke-width="2" stroke-linecap="round"/><path d="M1400,640 Q1404,624 1408,616" fill="none" stroke="#F6F2EA" stroke-opacity="0.45" stroke-width="2" stroke-linecap="round"/><path d="M1470,640 Q1466,621 1462,610" fill="none" stroke="#F6F2EA" stroke-opacity="0.45" stroke-width="2" stroke-linecap="round"/><path d="M1540,640 Q1540,618 1540,604" fill="none" stroke="#F6F2EA" stroke-opacity="0.45" stroke-width="2" stroke-linecap="round"/><path d="M1610,640 Q1614,615 1618,598" fill="none" stroke="#F6F2EA" stroke-opacity="0.45" stroke-width="2" stroke-linecap="round"/><path d="M1680,640 Q1676,624 1672,616" fill="none" stroke="#F6F2EA" stroke-opacity="0.45" stroke-width="2" stroke-linecap="round"/><path d="M1750,640 Q1750,621 1750,610" fill="none" stroke="#F6F2EA" stroke-opacity="0.45" stroke-width="2" stroke-linecap="round"/><g transform="translate(1500 470) scale(1)" opacity="0.45">
    <path d="M0,-40 L0,10 L28,10 Z" fill="#F6F2EA" />
    <path d="M0,-30 L-20,10 L0,10 Z" fill="#F6F2EA" fill-opacity="0.7" />
    <line x1="-26" y1="10" x2="30" y2="10" stroke="#F6F2EA" stroke-width="2.5"/>
  </g><path d="M24,828 L24,876 L72,876" fill="none" stroke="#F6F2EA" stroke-opacity="0.18" stroke-width="2"/><path d="M1848,24 L1896,24 L1896,72" fill="none" stroke="#F6F2EA" stroke-opacity="0.18" stroke-width="2"/></svg>