<svg xmlns="http://www.w3.org/2000/svg" viewBox="0 0 1920 900" width="1920" height="900" role="img" aria-label="pasadena-hero"><defs><linearGradient id="g25" x1="0" y1="0" x2="0" y2="1"><stop offset="0" stop-color="#D8E4ED" stop-opacity="1"/><stop offset="1" stop-color="#FFFFFF" stop-opacity="1"/></linearGradient></defs><rect width="1920" height="900" fill="url(#g25)"/><path d="M0,557.77 L160,556.18 L320,559.05 L480,565.45 L640,573.32 L800,580.12 L960,583.65 L1120,582.78 L1280,577.79 L1440,570.28 L1600,562.68 L1760,557.45 L1920,556.26" fill="none" stroke="#6C90B0" stroke-opacity="0.4" stroke-width="2" stroke-linecap="round"/><path d="M0,593.65 L160,583.55 L320,575.52 L480,572.17 L640,574.57 L800,581.95 L960,591.92 L1120,601.28 L1280,607 L1440,607.23 L1600,601.9 L1760,592.74 L1920,582.69" fill="none" stroke="#6C90B0" stroke-opacity="0.27" stroke-width="2" stroke-linecap="round"/><path d="M0,560 Q160,490 240,525 Q320,560 400,525 Q480,490 560,525 Q640,560 720,525 Q800,490 880,525 Q960,560 960,560" fill="none" stroke="#6C90B0" stroke-opacity="0.4" stroke-width="2.5" stroke-linecap="round"/><rect x="1150" y="560" width="100" height="56" rx="12" fill="none" stroke="#6C90B0" stroke-opacity="0.3" stroke-width="2"/><line x1="1200" y1="564.8" x2="1200" y2="611.2" stroke="#6C90B0" stroke-opacity="0.3" stroke-width="1.5" stroke-linecap="round"/><line x1="1154.8" y1="588" x2="1245.2" y2="588" stroke="#6C90B0" stroke-opacity="0.3" stroke-width="1.5" stroke-linecap="round"/><rect x="1280" y="560" width="100" height="56" rx="12" fill="none" stroke="#6C90B0" stroke-opacity="0.3" stroke-width="2"/><line x1="1330" y1="564.8" x2="1330" y2="611.2" stroke="#6C90B0" stroke-opacity="0.3" stroke-width="1.5" stroke-linecap="round"/><line x1="1284.8" y1="588" x2="1375.2" y2="588" stroke="#6C90B0" stroke-opacity="0.3" stroke-width="1.5" stroke-linecap="round"/><rect x="1410" y="560" width="100" height="56" rx="12" fill="none" stroke="#6C90B0" stroke-opacity="0.3" stroke-width="2"/><line x1="1460" y1="564.8" x2="1460" y2="611.2" stroke="#6C90B0" stroke-opacity="0.3" stroke-width="1.5" stroke-linecap="round"/><line x1="1414.8" y1="588" x2="1505.2" y2="588" stroke="#6C90B0" stroke-opacity="0.3" stroke-width="1.5" stroke-linecap="round"/><rect x="1540" y="560" width="100" height="56" rx="12" fill="none" stroke="#6C90B0" stroke-opacity="0.3" stroke-width="2"/><line x1="1590" y1="564.8" x2="1590" y2="611.2" stroke="#6C90B0" stroke-opacity="0.3" stroke-width="1.5" stroke-linecap="round"/><line x1="1544.8" y1="588" x2="1635.2" y2="588" stroke="#6C90B0" stroke-opacity="0.3" stroke-width="1.5" stroke-linecap="round"/><circle cx="300" cy="260" r="70" fill="#A9C4D8" fill-opacity="0.3"/><path d="M24,828 L24,860 A16,16 0 0 0 40,876 L72,876" fill="none" stroke="#6B7480" stroke-opacity="0.22" stroke-width="2" stroke-linecap="round"/><path d="M1848,24 L1880,24 A16,16 0 0 1 1896,40 L1896,72" fill="none" stroke="#6B7480" stroke-opacity="0.22" stroke-width="2" stroke-linecap="round"/></svg>