<svg xmlns="http://www.w3.org/2000/svg" viewBox="0 0 1600 1067" width="1600" height="1067" role="img" aria-label="harbor-sunset-view"><defs><linearGradient id="g11" x1="0" y1="0" x2="0" y2="1"><stop offset="0" stop-color="#D8E4ED" stop-opacity="1"/><stop offset="1" stop-color="#FFFFFF" stop-opacity="1"/></linearGradient></defs><rect width="1600" height="1067" fill="url(#g11)"/><circle cx="1152" cy="601.5" r="90" fill="#A9C4D8" fill-opacity="0.55"/><path d="M0,714.23 L133.33,707.2 L266.67,699.46 L400,693.5 L533.33,691.26 L666.67,693.45 L800,699.37 L933.33,707.1 L1066.67,714.16 L1200,718.26 L1333.33,718.08 L1466.67,713.68 L1600,706.48" fill="none" stroke="#6C90B0" stroke-opacity="0.4" stroke-width="2" stroke-linecap="round"/><path d="M0,717.4 L133.33,722.7 L266.67,726.59 L400,727.82 L533.33,725.98 L666.67,721.68 L800,716.3 L933.33,711.57 L1066.67,709.03 L1200,709.49 L1333.33,712.8 L1466.67,717.9 L1600,723.14" fill="none" stroke="#6C90B0" stroke-opacity="0.3" stroke-width="2" stroke-linecap="round"/><path d="M0,732.5 L133.33,737.24 L266.67,740.18 L400,740.37 L533.33,737.76 L666.67,733.18 L800,728.11 L933.33,724.19 L1066.67,722.68 L1200,724.07 L1333.33,727.91 L1466.67,732.96 L1600,737.6" fill="none" stroke="#6C90B0" stroke-opacity="0.2" stroke-width="2" stroke-linecap="round"/><g transform="translate(448 646) scale(0.85)" opacity="0.5">
    <rect x="-14" y="-6" width="28" height="46" rx="8" fill="#333A42"/>
    <path d="M-11,-6 Q0,-34 11,-6" fill="#333A42"/>
    <circle cx="0" cy="-30" r="6" fill="#333A42"/>
    <line x1="-18" y1="40" x2="20" y2="40" stroke="#333A42" stroke-width="3" stroke-linecap="round"/>
  </g><path d="M24,995 L24,1027 A16,16 0 0 0 40,1043 L72,1043" fill="none" stroke="#6B7480" stroke-opacity="0.22" stroke-width="2" stroke-linecap="round"/><path d="M1528,24 L1560,24 A16,16 0 0 1 1576,40 L1576,72" fill="none" stroke="#6B7480" stroke-opacity="0.22" stroke-width="2" stroke-linecap="round"/></svg>